<?xml version="1.0" encoding="UTF-8"?> <svg xmlns="http://www.w3.org/2000/svg" width="239" height="51" viewBox="0 0 239 51" fill="none"><path d="M9.32052 38.0527C8.25386 37.9673 7.33652 37.6047 6.56852 36.9647C5.67252 36.1967 4.96852 35.386 4.45652 34.5327C4.24319 34.1487 3.64586 33.0393 2.66452 31.2047C2.36586 30.522 2.19519 30.074 2.15252 29.8607C1.34186 27.4713 0.936523 24.9113 0.936523 22.1807C0.936523 20.8153 1.00052 19.45 1.12852 18.0847C1.17119 17.1033 1.42719 15.61 1.89652 13.6047C2.40852 11.386 3.21919 9.16733 4.32852 6.94866C4.54186 6.56466 5.16052 5.58333 6.18452 4.00466C6.61119 3.322 7.54986 2.34066 9.00052 1.06066C9.29919 0.847328 9.72586 0.612662 10.2805 0.356663C10.5792 0.185996 10.9632 0.100662 11.4325 0.100662C11.7739 0.100662 12.1152 0.164663 12.4565 0.292664L12.5845 0.356663C13.0112 0.484664 13.2245 0.633996 13.2245 0.804661C13.2245 0.932662 13.0325 1.06066 12.6485 1.18866C12.2219 1.44466 11.8165 1.74333 11.4325 2.08466C10.9205 2.63933 10.3445 3.386 9.70452 4.32466C8.46719 6.458 7.54986 8.59133 6.95252 10.7247C6.35519 12.73 6.03519 14.714 5.99252 16.6767C5.90719 18.3407 5.88586 19.3647 5.92852 19.7487C5.92852 20.7727 5.90719 21.434 5.86452 21.7327C5.86452 23.226 5.94986 24.4633 6.12052 25.4447C6.29119 26.6393 6.39786 27.3433 6.44052 27.5567C6.78186 29.0073 7.08052 30.1807 7.33652 31.0767C7.72052 32.314 8.10452 33.3593 8.48852 34.2127C8.95786 35.194 9.40586 35.9193 9.83252 36.3887C10.3872 37.0287 10.7712 37.3487 10.9845 37.3487C11.0272 37.3487 11.4325 37.178 12.2005 36.8367C13.1392 36.3247 13.9925 35.4073 14.7605 34.0847C15.4859 32.8473 16.1045 31.354 16.6165 29.6047C17.1712 27.6847 17.5765 25.4873 17.8325 23.0127C18.0459 20.8793 18.1525 19.13 18.1525 17.7647C18.1525 16.7833 18.1312 16.1433 18.0885 15.8447C18.0032 13.5833 17.8112 11.6847 17.5125 10.1487C17.0859 8.35666 16.4672 6.97 15.6565 5.98866C15.4005 5.64733 15.1019 5.30599 14.7605 4.96466C14.6325 4.75133 14.4405 4.70866 14.1845 4.83666C13.5872 5.05 13.2672 5.32733 13.2245 5.66866C13.1392 5.83933 13.0112 5.90333 12.8405 5.86066C12.0725 5.60466 11.6459 5.45533 11.5605 5.41266C11.0485 5.19933 10.9419 4.858 11.2405 4.38866C11.6672 3.706 12.2859 3.36466 13.0965 3.36466C13.3525 3.36466 13.5232 3.386 13.6085 3.42866L15.4645 4.06866C16.0192 4.32466 16.5952 4.75133 17.1925 5.34866C18.1312 6.41533 18.8352 7.82333 19.3045 9.57266C19.5605 10.682 19.7312 11.9193 19.8165 13.2847V16.1007C19.8592 17.85 19.6885 20.3033 19.3045 23.4607C19.0059 25.8927 18.4939 28.3033 17.7685 30.6927C17.1712 32.57 16.4672 34.1487 15.6565 35.4287C14.9739 36.4527 14.2485 37.178 13.4805 37.6047C12.7979 37.9887 12.1579 38.1807 11.5605 38.1807C11.3472 38.1807 10.6005 38.138 9.32052 38.0527ZM43.415 19.1087C43.415 19.2367 43.3297 19.322 43.159 19.3647L42.391 19.7487C42.007 19.8767 40.983 20.3033 39.319 21.0287C38.679 21.2847 37.6124 21.882 36.119 22.8207C35.735 23.034 35.479 23.3753 35.351 23.8447C34.9244 25.338 34.135 26.938 32.983 28.6447C32.343 29.37 31.9377 29.7967 31.767 29.9247C31.4257 30.266 31.0417 30.3727 30.615 30.2447L29.655 30.0527C29.3564 29.9673 29.1857 29.7967 29.143 29.5407C29.1004 29.4553 29.079 29.242 29.079 28.9007C29.079 28.5167 29.143 28.1113 29.271 27.6847C29.3564 27.4713 29.655 26.9593 30.167 26.1487C31.191 24.826 32.151 23.8447 33.047 23.2047C33.303 22.9913 33.495 22.714 33.623 22.3727C34.007 20.8367 34.199 19.3007 34.199 17.7647C34.199 16.9113 34.135 16.0367 34.007 15.1407C33.9217 14.5433 33.7937 14.1593 33.623 13.9887C33.4524 14.074 33.2177 14.266 32.919 14.5647C32.535 15.034 32.151 15.6313 31.767 16.3567C31.5537 16.826 31.319 17.3807 31.063 18.0207C30.807 18.6607 30.6577 19.002 30.615 19.0447C29.9324 20.9647 29.207 23.674 28.439 27.1727C28.1404 28.8793 27.8844 30.6073 27.671 32.3567C27.671 32.3993 27.6284 32.6127 27.543 32.9967C27.5004 33.3807 27.4577 33.722 27.415 34.0207C27.287 35.1727 27.0737 37.8393 26.775 42.0207C26.6897 44.3247 26.647 45.6047 26.647 45.8607L26.583 47.7807V48.5487C26.583 48.8047 26.455 48.9753 26.199 49.0607L25.111 49.2527C24.8977 49.2527 24.7697 49.1673 24.727 48.9967C24.599 48.7833 24.4924 48.442 24.407 47.9727C24.407 47.8447 24.3644 47.1407 24.279 45.8607C24.279 43.642 24.343 41.402 24.471 39.1407C24.6417 35.7273 24.727 32.8473 24.727 30.5007C24.727 29.0073 24.7057 28.0473 24.663 27.6207L24.599 24.7407C24.599 19.322 24.6204 15.8233 24.663 14.2447C24.8337 10.362 24.9404 7.866 24.983 6.75666C24.983 6.62866 25.0257 6.18066 25.111 5.41266C25.1964 5.19933 25.3457 5.114 25.559 5.15666L25.879 5.28466C26.3484 5.41266 26.6044 5.68999 26.647 6.11666C26.8177 7.43933 26.9244 9.10333 26.967 11.1087L27.159 24.4847C27.159 24.9967 27.223 25.402 27.351 25.7007L27.799 23.5887C28.439 20.9007 29.1857 18.49 30.039 16.3567C30.2524 15.802 30.5724 15.1407 30.999 14.3727C31.255 13.9887 31.5537 13.626 31.895 13.2847C32.3217 12.858 32.7697 12.7087 33.239 12.8367L34.583 13.0927C35.0524 13.2207 35.415 13.5193 35.671 13.9887C36.0977 14.7567 36.3324 15.5673 36.375 16.4207C36.4604 18.042 36.3964 19.3647 36.183 20.3887L36.119 21.0287L36.183 21.1567C36.2684 21.1993 36.3537 21.178 36.439 21.0927C36.567 21.0073 36.6524 20.9647 36.695 20.9647C37.9324 20.3247 39.5324 19.6633 41.495 18.9807C41.8364 18.8527 42.135 18.7887 42.391 18.7887C42.4764 18.7887 42.6897 18.8313 43.031 18.9167C43.2444 18.9167 43.3724 18.9807 43.415 19.1087ZM32.279 26.1487L32.407 25.7007L31.703 26.5327C31.2764 27.13 30.9564 27.642 30.743 28.0687C30.6577 28.282 30.6577 28.4313 30.743 28.5167C30.999 28.3887 31.2764 28.0473 31.575 27.4927C31.9164 26.938 32.151 26.49 32.279 26.1487ZM47.7385 30.3727C47.4825 30.1593 47.2905 29.818 47.1625 29.3487C46.9065 28.6233 46.7572 27.706 46.7145 26.5967C46.7145 25.4447 46.8212 24.4207 47.0345 23.5247C47.0772 23.354 47.1839 22.8847 47.3545 22.1167C47.5679 21.3487 47.7172 20.8153 47.8025 20.5167C48.1865 19.3647 48.4639 18.2553 48.6345 17.1887C48.6772 17.146 48.6985 16.9753 48.6985 16.6767C48.6985 16.4207 48.5705 16.3567 48.3145 16.4847C47.8879 16.6553 47.3759 16.9327 46.7785 17.3167C45.7119 17.9567 44.7305 18.746 43.8345 19.6847C43.3225 20.3673 43.0452 20.7513 43.0025 20.8367C42.8745 21.05 42.7465 21.0927 42.6185 20.9647L41.3385 20.1327C41.2105 19.9193 41.1679 19.7487 41.2105 19.6207L41.6585 18.8527C42.4265 17.7007 43.4932 16.6553 44.8585 15.7167L46.6505 14.5007L46.9065 14.3727C47.4185 14.1593 47.8025 14.0527 48.0585 14.0527C48.4852 14.0527 48.8692 14.2233 49.2105 14.5647L50.4265 15.5247C50.7252 15.6953 50.9172 16.058 51.0025 16.6127C51.0025 16.7407 50.9599 17.274 50.8745 18.2127L50.2345 21.6047C50.1492 22.074 49.9785 23.4607 49.7225 25.7647C49.6372 27.13 49.5945 27.8767 49.5945 28.0047L49.6585 29.6687V29.9887C49.7439 30.1593 49.8292 30.202 49.9145 30.1167L50.6185 29.8607C50.9599 29.69 51.3865 29.3487 51.8985 28.8367C52.7092 28.154 53.6265 27.13 54.6505 25.7647L57.4665 21.6047L58.6825 19.8127C58.9385 19.4287 59.2159 19.0447 59.5145 18.6607C59.5999 18.4473 59.7065 18.426 59.8345 18.5967C59.8772 18.6393 59.9625 18.7033 60.0905 18.7887C60.3465 18.9593 60.4745 19.0873 60.4745 19.1727C60.4745 19.2153 60.3679 19.4073 60.1545 19.7487C59.5572 20.5167 58.5759 21.946 57.2105 24.0367L54.2665 28.0687C53.4985 29.0927 52.6665 30.0527 51.7705 30.9487L50.6185 31.7807C50.2772 31.994 49.9785 31.994 49.7225 31.7807C49.5092 31.61 49.1679 31.3753 48.6985 31.0767C48.2292 30.7353 47.9092 30.5007 47.7385 30.3727ZM76.321 31.6527L74.465 30.7567C74.209 30.586 73.8464 30.2447 73.377 29.7327C73.0357 29.0927 72.7797 28.5593 72.609 28.1327C72.0117 26.0847 71.713 23.9087 71.713 21.6047C71.713 19.77 71.7344 18.5967 71.777 18.0847C71.8197 17.5727 71.8837 16.954 71.969 16.2287C72.097 15.4607 72.161 15.0127 72.161 14.8847L72.225 13.8607L72.161 13.5407C71.8624 13.8393 71.5424 14.2873 71.201 14.8847C70.689 15.738 70.0064 17.1033 69.153 18.9807L66.529 25.1247C65.8037 26.746 64.929 28.2607 63.905 29.6687C63.777 29.882 63.4357 30.266 62.881 30.8207C62.5824 31.1193 62.2197 31.2687 61.793 31.2687C61.4944 31.2687 61.217 31.2047 60.961 31.0767C59.809 30.522 59.105 30.1807 58.849 30.0527C58.081 29.7113 57.5264 29.1567 57.185 28.3887C56.801 27.4927 56.609 26.554 56.609 25.5727C56.609 24.89 56.6944 24.058 56.865 23.0767C57.2064 21.4553 57.633 20.154 58.145 19.1727C59.3824 16.7407 60.9824 15.1193 62.945 14.3087C63.7557 13.9673 64.4384 13.7967 64.993 13.7967C65.7184 13.7967 66.5077 14.0313 67.361 14.5007L68.577 15.2047C68.833 15.3327 68.9824 15.3113 69.025 15.1407L69.473 14.3087C70.0704 13.1567 70.561 12.3673 70.945 11.9407L71.329 11.4927C71.5424 11.2793 71.7344 11.1727 71.905 11.1727C72.0757 11.1727 72.2464 11.2153 72.417 11.3007C72.5024 11.3433 72.673 11.45 72.929 11.6207C73.2277 11.7487 73.4837 11.8767 73.697 12.0047C73.9957 12.1327 74.209 12.3673 74.337 12.7087C74.5077 13.05 74.593 13.498 74.593 14.0527L74.657 15.2687C74.657 15.3967 74.6144 15.9727 74.529 16.9967L74.401 20.2607C74.3157 21.7113 74.273 22.5433 74.273 22.7567C74.273 24.9327 74.593 27.002 75.233 28.9647C75.2757 29.05 75.3184 29.1567 75.361 29.2847C75.4037 29.4553 75.4464 29.562 75.489 29.6047C75.617 29.946 75.7664 30.1167 75.937 30.1167H76.001C76.0437 30.074 76.1077 30.0313 76.193 29.9887C76.2784 29.9033 76.3637 29.8393 76.449 29.7967C77.0464 29.2847 77.537 28.7513 77.921 28.1967C78.6037 27.2153 79.265 25.9993 79.905 24.5487C80.033 24.25 80.7797 22.906 82.145 20.5167C82.657 19.5353 82.977 18.9807 83.105 18.8527C83.233 18.7247 83.4037 18.7033 83.617 18.7887L84.513 19.2367C84.7264 19.322 84.7904 19.4713 84.705 19.6847L84.321 20.5807C83.3397 22.6713 82.2517 24.9113 81.057 27.3007C80.9717 27.514 80.5664 28.218 79.841 29.4127C79.713 29.7113 79.265 30.2447 78.497 31.0127C78.241 31.2687 77.9637 31.4607 77.665 31.5887C77.409 31.7167 77.1744 31.7807 76.961 31.7807C76.8757 31.7807 76.6624 31.738 76.321 31.6527ZM61.025 28.9007L61.409 28.5807C62.3477 27.8127 63.2224 26.746 64.033 25.3807C65.057 23.6313 65.8677 22.0953 66.465 20.7727L68.321 16.6767C68.3637 16.634 68.385 16.506 68.385 16.2927C68.385 15.866 68.1504 15.5887 67.681 15.4607C67.297 15.4607 67.041 15.482 66.913 15.5247C65.9744 15.6527 65.0997 16.058 64.289 16.7407C62.5824 18.1913 61.473 20.09 60.961 22.4367C60.7904 23.1193 60.6624 23.802 60.577 24.4847C60.449 25.1673 60.385 25.85 60.385 26.5327C60.385 27.386 60.4704 28.1327 60.641 28.7727C60.6837 28.9433 60.8117 28.986 61.025 28.9007ZM85.211 31.0767L83.355 30.3727C83.099 30.2447 82.971 30.0527 82.971 29.7967V27.4927C83.0137 27.1513 83.035 26.4047 83.035 25.2527V21.9247L82.971 18.5967C82.971 16.8047 83.035 15.0553 83.163 13.3487C83.163 13.306 83.2057 12.9433 83.291 12.2607C83.3764 12.0047 83.5044 11.962 83.675 12.1327C83.8457 12.1753 84.2297 12.346 84.827 12.6447C84.9977 12.73 85.1044 12.8793 85.147 13.0927V13.3487C85.1044 14.0313 85.1044 15.034 85.147 16.3567C85.2324 17.6367 85.275 18.3193 85.275 18.4047C85.403 20.6233 85.5097 22.1167 85.595 22.8847C85.595 23.098 85.6377 23.2047 85.723 23.2047C85.8084 23.29 85.9364 23.226 86.107 23.0127L87.131 21.9887C89.0937 19.5567 90.523 17.6153 91.419 16.1647C91.7177 15.6527 91.9097 15.0767 91.995 14.4367C92.123 13.6687 92.2297 13.114 92.315 12.7727L92.507 12.1967C92.6777 11.8127 92.8697 11.6207 93.083 11.6207C93.211 11.6207 93.403 11.6847 93.659 11.8127L94.747 12.2607C95.2164 12.5593 95.4297 12.9433 95.387 13.4127C95.387 14.394 95.323 15.354 95.195 16.2927C95.067 17.6153 94.9817 18.5113 94.939 18.9807L94.811 20.3247C94.7257 22.202 94.875 23.9087 95.259 25.4447C95.387 26.17 95.6004 26.7673 95.899 27.2367C95.9417 27.4073 96.1124 27.4713 96.411 27.4287C97.2217 27.2153 97.883 26.8527 98.395 26.3407L99.291 25.4447C101.126 23.482 102.619 21.6687 103.771 20.0047C103.984 19.706 104.262 19.386 104.603 19.0447C104.731 18.8313 104.923 18.7887 105.179 18.9167L105.563 19.1087C105.776 19.194 105.883 19.258 105.883 19.3007C105.883 19.3433 105.819 19.4713 105.691 19.6847L101.147 25.2527C100.038 26.6607 99.1417 27.5993 98.459 28.0687C98.1604 28.3673 97.947 28.538 97.819 28.5807C97.5204 28.7513 97.243 28.8367 96.987 28.8367C96.7737 28.8367 96.5817 28.794 96.411 28.7087C95.131 28.154 94.2137 27.706 93.659 27.3647C92.9764 26.938 92.507 26.298 92.251 25.4447C91.9097 24.2073 91.6964 23.034 91.611 21.9247C91.5257 20.9007 91.483 20.3033 91.483 20.1327L91.547 18.9167V18.1487L91.483 18.0847H91.355L91.163 18.2767L90.267 19.4927L88.795 21.6047C88.027 22.6287 87.4084 23.3753 86.939 23.8447L86.299 24.4847C85.8724 24.9113 85.7017 25.4447 85.787 26.0847C85.8724 26.8527 85.915 27.2793 85.915 27.3647C86.0004 29.0713 86.043 29.9887 86.043 30.1167V30.4367V30.6927C86.043 31.034 85.9364 31.2047 85.723 31.2047L85.211 31.0767ZM119.519 30.6287L117.407 30.0527C116.937 29.9247 116.447 29.4767 115.935 28.7087C115.465 27.9407 115.145 27.1087 114.975 26.2127C114.847 25.7007 114.719 24.698 114.591 23.2047C114.505 22.0953 114.463 20.7727 114.463 19.2367C114.463 19.1087 114.463 18.9593 114.463 18.7887C114.463 18.618 114.463 18.4473 114.463 18.2767C114.463 18.106 114.463 17.9993 114.463 17.9567C114.377 17.8713 114.292 17.914 114.207 18.0847L113.823 18.9167C112.457 21.9033 110.964 24.5487 109.343 26.8527C108.745 27.6207 108.383 28.0687 108.255 28.1967C107.999 28.4527 107.679 28.5167 107.295 28.3887L105.951 28.0047C105.353 27.8767 104.927 27.514 104.671 26.9167C104.329 26.0207 104.116 25.146 104.031 24.2927L103.967 22.4367C103.967 22.266 104.009 21.37 104.095 19.7487C104.265 18.042 104.457 16.8047 104.671 16.0367C104.841 15.5247 105.012 15.2687 105.183 15.2687C105.311 15.2687 105.545 15.3327 105.887 15.4607C106.228 15.5887 106.399 15.866 106.399 16.2927C106.484 18.3407 106.527 19.514 106.527 19.8127C106.612 21.178 106.761 22.8207 106.975 24.7407C107.017 24.9967 107.103 25.5727 107.231 26.4687C107.231 26.554 107.252 26.618 107.295 26.6607C107.38 26.6607 107.444 26.6393 107.487 26.5967C107.913 26.3407 108.297 25.9353 108.639 25.3807C109.449 24.3567 110.217 23.162 110.943 21.7967C112.009 19.7913 113.076 17.466 114.143 14.8207L114.783 13.1567C114.996 12.6873 115.145 12.2393 115.231 11.8127C115.273 11.4713 115.423 11.002 115.679 10.4047C115.721 10.234 115.849 10.17 116.063 10.2127L117.407 10.6607C117.705 10.7887 117.919 11.002 118.047 11.3007C118.217 11.77 118.26 12.4527 118.175 13.3487L117.919 17.1247C117.833 18.746 117.791 20.5593 117.791 22.5647C117.791 23.4607 117.919 24.8047 118.175 26.5967C118.303 27.45 118.537 28.2607 118.879 29.0287C119.007 29.3273 119.113 29.4767 119.199 29.4767C119.369 29.4767 119.54 29.3913 119.711 29.2207C120.351 28.8367 120.905 28.3247 121.375 27.6847C121.801 27.13 122.591 25.9353 123.743 24.1007C124.809 22.394 125.513 21.1567 125.855 20.3887C126.068 19.834 126.324 19.4073 126.623 19.1087C126.836 18.8953 127.028 18.81 127.199 18.8527C127.881 19.0233 128.287 19.1727 128.415 19.3007C128.073 19.9833 127.775 20.4953 127.519 20.8367C126.964 21.6047 126.409 22.4793 125.855 23.4607L123.999 26.6607C123.103 28.1113 122.377 29.114 121.823 29.6687L121.055 30.3087C120.585 30.65 120.073 30.7567 119.519 30.6287ZM148.931 19.4287L148.867 19.4927C148.824 19.578 148.76 19.6847 148.675 19.8127C148.589 19.898 148.504 20.0047 148.419 20.1327C147.779 20.8153 147.117 21.4767 146.435 22.1167L144.707 23.7807C142.915 25.5727 141.336 27.194 139.971 28.6447C139.715 28.9007 139.544 29.2207 139.459 29.6047C139.245 30.7993 138.797 32.122 138.115 33.5727C137.219 35.6207 136.323 37.498 135.427 39.2047C134.36 41.2953 133.443 42.9593 132.675 44.1967C131.864 45.69 130.989 46.9487 130.051 47.9727C129.453 48.698 128.685 49.4233 127.747 50.1487L126.979 50.5967C126.723 50.7247 126.467 50.7887 126.211 50.7887C126.168 50.7887 125.976 50.746 125.635 50.6607L124.483 50.2767C124.141 50.1913 123.949 49.9567 123.907 49.5727C123.907 49.146 123.949 48.7193 124.035 48.2927C124.291 47.482 124.589 46.8207 124.931 46.3087C126.851 42.8527 128.984 39.61 131.331 36.5807L135.299 31.5247C135.512 31.2687 135.704 30.9273 135.875 30.5007C136.472 28.8793 136.835 27.3433 136.963 25.8927V25.5727C136.963 25.1887 136.941 24.9327 136.899 24.8047C136.899 24.5913 136.792 24.4847 136.579 24.4847L135.491 24.6767C134.424 25.018 133.293 25.5727 132.099 26.3407L131.203 26.9167C130.947 27.002 130.776 27.0233 130.691 26.9807L130.627 26.9167C129.987 26.746 129.667 26.554 129.667 26.3407C129.667 26.2553 129.837 25.978 130.179 25.5087C131.971 22.906 133.421 20.602 134.531 18.5967C135.555 16.89 136.515 14.65 137.411 11.8767C137.709 10.938 137.88 10.1913 137.923 9.63666V9.57266C137.965 9.44466 137.987 9.338 137.987 9.25266C138.029 9.16733 137.987 9.03933 137.859 8.86866C137.773 8.78333 137.709 8.74066 137.667 8.74066C137.581 8.74066 137.453 8.80466 137.283 8.93266C137.155 9.018 137.069 9.06066 137.027 9.06066C135.704 9.70066 134.403 10.746 133.123 12.1967C130.989 14.6287 129.453 17.2527 128.515 20.0687L128.387 20.2607C128.344 20.474 128.28 20.602 128.195 20.6447C128.152 20.6447 128.024 20.602 127.811 20.5167C127.725 20.5167 127.661 20.4953 127.619 20.4527C127.235 20.282 126.979 20.154 126.851 20.0687C126.765 19.9833 126.723 19.8127 126.723 19.5567C126.723 18.5753 127.085 17.1887 127.811 15.3967C128.792 13.05 130.264 10.9593 132.227 9.12466C132.995 8.442 133.827 7.866 134.723 7.39666C135.32 7.14066 135.875 7.01266 136.387 7.01266C136.899 7.01266 137.411 7.14066 137.923 7.39666L139.331 8.03666C139.8 8.25 140.056 8.634 140.099 9.18866C140.099 9.70066 140.013 10.2767 139.843 10.9167C139.544 11.898 139.331 12.5167 139.203 12.7727C138.307 15.2047 137.133 17.594 135.683 19.9407L133.379 23.6527C133.293 23.738 133.272 23.8447 133.315 23.9727C133.4 24.0153 133.507 23.994 133.635 23.9087H133.699L135.171 23.4607C135.256 23.418 135.448 23.3967 135.747 23.3967C136.045 23.3967 136.365 23.4607 136.707 23.5887L137.923 24.1647C138.819 24.5913 139.352 25.1887 139.523 25.9567L139.587 26.1487C139.672 26.4047 139.8 26.4473 139.971 26.2767L140.291 26.0207L144.195 22.0527C145.688 20.474 146.627 19.514 147.011 19.1727C147.309 18.874 147.523 18.7247 147.651 18.7247C147.736 18.7247 147.821 18.7673 147.907 18.8527C148.035 18.938 148.141 18.9807 148.227 18.9807C148.696 19.194 148.931 19.3433 148.931 19.4287ZM132.547 37.9887L132.675 37.5407L132.035 38.2447C130.456 40.4633 129.091 42.5113 127.939 44.3887C127.171 45.5407 126.531 46.7567 126.019 48.0367L125.763 48.7407L125.827 48.8047C125.827 48.8473 125.869 48.8687 125.955 48.8687L126.275 48.5487C126.701 48.122 127.384 47.1833 128.323 45.7327C128.877 44.8793 129.56 43.6847 130.371 42.1487L132.547 37.9887ZM164.821 31.6527L162.965 30.7567C162.709 30.586 162.346 30.2447 161.877 29.7327C161.536 29.0927 161.28 28.5593 161.109 28.1327C160.512 26.0847 160.213 23.9087 160.213 21.6047C160.213 19.77 160.234 18.5967 160.277 18.0847C160.32 17.5727 160.384 16.954 160.469 16.2287C160.597 15.4607 160.661 15.0127 160.661 14.8847L160.725 13.8607L160.661 13.5407C160.362 13.8393 160.042 14.2873 159.701 14.8847C159.189 15.738 158.506 17.1033 157.653 18.9807L155.029 25.1247C154.304 26.746 153.429 28.2607 152.405 29.6687C152.277 29.882 151.936 30.266 151.381 30.8207C151.082 31.1193 150.72 31.2687 150.293 31.2687C149.994 31.2687 149.717 31.2047 149.461 31.0767C148.309 30.522 147.605 30.1807 147.349 30.0527C146.581 29.7113 146.026 29.1567 145.685 28.3887C145.301 27.4927 145.109 26.554 145.109 25.5727C145.109 24.89 145.194 24.058 145.365 23.0767C145.706 21.4553 146.133 20.154 146.645 19.1727C147.882 16.7407 149.482 15.1193 151.445 14.3087C152.256 13.9673 152.938 13.7967 153.493 13.7967C154.218 13.7967 155.008 14.0313 155.861 14.5007L157.077 15.2047C157.333 15.3327 157.482 15.3113 157.525 15.1407L157.973 14.3087C158.57 13.1567 159.061 12.3673 159.445 11.9407L159.829 11.4927C160.042 11.2793 160.234 11.1727 160.405 11.1727C160.576 11.1727 160.746 11.2153 160.917 11.3007C161.002 11.3433 161.173 11.45 161.429 11.6207C161.728 11.7487 161.984 11.8767 162.197 12.0047C162.496 12.1327 162.709 12.3673 162.837 12.7087C163.008 13.05 163.093 13.498 163.093 14.0527L163.157 15.2687C163.157 15.3967 163.114 15.9727 163.029 16.9967L162.901 20.2607C162.816 21.7113 162.773 22.5433 162.773 22.7567C162.773 24.9327 163.093 27.002 163.733 28.9647C163.776 29.05 163.818 29.1567 163.861 29.2847C163.904 29.4553 163.946 29.562 163.989 29.6047C164.117 29.946 164.266 30.1167 164.437 30.1167H164.501C164.544 30.074 164.608 30.0313 164.693 29.9887C164.778 29.9033 164.864 29.8393 164.949 29.7967C165.546 29.2847 166.037 28.7513 166.421 28.1967C167.104 27.2153 167.765 25.9993 168.405 24.5487C168.533 24.25 169.28 22.906 170.645 20.5167C171.157 19.5353 171.477 18.9807 171.605 18.8527C171.733 18.7247 171.904 18.7033 172.117 18.7887L173.013 19.2367C173.226 19.322 173.29 19.4713 173.205 19.6847L172.821 20.5807C171.84 22.6713 170.752 24.9113 169.557 27.3007C169.472 27.514 169.066 28.218 168.341 29.4127C168.213 29.7113 167.765 30.2447 166.997 31.0127C166.741 31.2687 166.464 31.4607 166.165 31.5887C165.909 31.7167 165.674 31.7807 165.461 31.7807C165.376 31.7807 165.162 31.738 164.821 31.6527ZM149.525 28.9007L149.909 28.5807C150.848 27.8127 151.722 26.746 152.533 25.3807C153.557 23.6313 154.368 22.0953 154.965 20.7727L156.821 16.6767C156.864 16.634 156.885 16.506 156.885 16.2927C156.885 15.866 156.65 15.5887 156.181 15.4607C155.797 15.4607 155.541 15.482 155.413 15.5247C154.474 15.6527 153.6 16.058 152.789 16.7407C151.082 18.1913 149.973 20.09 149.461 22.4367C149.29 23.1193 149.162 23.802 149.077 24.4847C148.949 25.1673 148.885 25.85 148.885 26.5327C148.885 27.386 148.97 28.1327 149.141 28.7727C149.184 28.9433 149.312 28.986 149.525 28.9007ZM171.919 33.3807C171.62 33.338 171.407 33.1673 171.279 32.8687L170.639 31.2047C170.212 29.754 169.999 28.1327 169.999 26.3407C169.999 24.89 170.084 23.034 170.255 20.7727L170.383 19.3647C170.554 17.658 170.639 16.634 170.639 16.2927C170.852 13.562 171.023 11.8767 171.151 11.2367L171.855 6.75666C171.898 6.202 172.047 5.92466 172.303 5.92466C172.474 5.92466 172.708 5.98866 173.007 6.11666C173.306 6.24466 173.476 6.458 173.519 6.75666L173.711 7.65266C173.924 9.57266 174.031 11.13 174.031 12.3247C174.074 12.8793 174.095 14.1593 174.095 16.1647C174.095 18.17 174.074 19.45 174.031 20.0047C173.946 23.0767 173.903 24.8047 173.903 25.1887C173.903 25.6153 173.924 25.8927 173.967 26.0207C174.138 25.8927 174.223 25.786 174.223 25.7007L175.375 21.4767C176.015 19.4713 176.655 17.85 177.295 16.6127C177.508 16.058 177.764 15.6313 178.063 15.3327C178.404 14.8633 178.852 14.714 179.407 14.8847C179.876 15.0553 180.175 15.1407 180.303 15.1407C180.73 15.2687 181.028 15.5247 181.199 15.9087L181.583 16.8687L182.735 20.0047L182.799 20.1967C182.927 20.7513 183.119 21.0287 183.375 21.0287C183.46 21.0287 183.738 20.858 184.207 20.5167C185.231 19.578 185.85 18.9807 186.063 18.7247C186.191 18.554 186.618 18.1913 187.343 17.6367C187.727 17.3807 188.111 17.3167 188.495 17.4447L189.903 17.8287C190.33 17.9567 190.671 18.2127 190.927 18.5967L192.015 20.3887L192.719 21.7327L193.167 22.3087C193.38 22.522 193.658 22.6287 193.999 22.6287C194.34 22.6287 194.554 22.6073 194.639 22.5647C196.602 22.2233 198.138 21.7327 199.247 21.0927L201.935 19.3647L202.895 18.7887C203.151 18.746 203.364 18.746 203.535 18.7887L203.727 18.8527C204.282 19.0233 204.559 19.1513 204.559 19.2367V19.3007C204.559 19.5993 204.346 19.8127 203.919 19.9407L202.255 21.2207C200.89 22.2873 199.183 22.97 197.135 23.2687C196.239 23.3967 195.663 23.4607 195.407 23.4607C194.084 23.4607 192.74 23.098 191.375 22.3727C190.991 22.1167 190.65 21.7967 190.351 21.4127C190.138 21.1567 189.775 20.4527 189.263 19.3007C189.05 18.7887 188.879 18.5327 188.751 18.5327C188.538 18.5327 188.282 18.682 187.983 18.9807L187.023 19.9407L185.871 21.1567C185.658 21.37 185.402 21.5833 185.103 21.7967C184.676 22.0953 184.186 22.1807 183.631 22.0527L182.287 21.6047C181.434 21.3487 180.836 20.794 180.495 19.9407C180.196 19.3433 180.004 18.7247 179.919 18.0847L179.535 16.4207C179.492 16.3353 179.428 16.2927 179.343 16.2927C179.3 16.25 179.258 16.2713 179.215 16.3567L178.639 17.0607C177.786 18.2553 176.975 20.0687 176.207 22.5007C175.908 23.5247 175.61 24.8047 175.311 26.3407L174.863 28.2607L174.095 31.7167C174.052 32.1433 173.967 32.698 173.839 33.3807C173.839 33.6367 173.69 33.7433 173.391 33.7007C173.348 33.7007 173.156 33.6793 172.815 33.6367C172.516 33.5513 172.218 33.466 171.919 33.3807ZM194.319 11.6207L193.999 11.5567C192.207 11.4287 190.159 10.9807 187.855 10.2127C186.063 9.57266 184.228 9.082 182.351 8.74066C182.138 8.698 181.69 8.67666 181.007 8.67666C180.367 8.67666 179.727 8.74066 179.087 8.86866C178.319 8.99666 177.7 9.29533 177.231 9.76466C176.975 9.978 176.954 10.1913 177.167 10.4047L177.487 10.7247C177.572 10.81 177.615 10.8953 177.615 10.9807C177.615 11.1513 177.487 11.2367 177.231 11.2367C176.847 11.2367 176.548 11.0447 176.335 10.6607L175.887 9.31666C175.844 9.274 175.823 9.12466 175.823 8.86866C175.823 8.65533 175.93 8.378 176.143 8.03666C176.442 7.61 176.847 7.26866 177.359 7.01266C177.743 6.79933 178.34 6.586 179.151 6.37266C179.791 6.24466 180.41 6.18066 181.007 6.18066C181.647 6.18066 182.415 6.266 183.311 6.43666C184.42 6.56466 185.786 6.842 187.407 7.26866L189.583 7.78066C191.076 8.122 192.463 8.33533 193.743 8.42066H194.255C194.98 8.42066 195.578 8.33533 196.047 8.16466C196.346 8.122 196.495 7.97266 196.495 7.71666C196.495 7.58866 196.559 7.52466 196.687 7.52466C196.73 7.52466 196.794 7.56733 196.879 7.65266C197.135 8.59133 197.263 9.31666 197.263 9.82866L197.199 10.4047C197.114 10.7887 196.9 11.066 196.559 11.2367C196.132 11.4073 195.386 11.5353 194.319 11.6207ZM206.622 30.1807L204.254 29.0287C203.699 28.73 203.209 28.1967 202.782 27.4287C202.27 26.49 202.014 25.21 202.014 23.5887C202.014 21.37 202.569 19.258 203.678 17.2527C204.019 16.7833 204.446 16.2927 204.958 15.7807L205.47 15.3967C205.641 15.226 205.918 15.1407 206.302 15.1407C206.515 15.1407 206.729 15.2047 206.942 15.3327C207.07 15.418 207.241 15.5673 207.454 15.7807C206.985 15.9513 206.601 16.3353 206.302 16.9327C205.406 18.5113 204.873 20.0687 204.702 21.6047C204.574 22.3727 204.51 23.162 204.51 23.9727C204.51 24.1007 204.553 24.6767 204.638 25.7007C204.809 26.7247 205.107 27.6207 205.534 28.3887C205.79 28.858 206.067 29.0927 206.366 29.0927L206.878 28.9647C207.689 28.794 208.435 28.2607 209.118 27.3647C209.886 26.3407 210.355 25.1887 210.526 23.9087C210.739 22.9273 210.803 22.2233 210.718 21.7967C210.718 21.4553 210.569 21.2633 210.27 21.2207H210.142C209.289 21.178 208.094 20.7513 206.558 19.9407L206.43 19.8127C205.918 19.514 205.662 19.194 205.662 18.8527C205.662 18.5113 205.811 18.1913 206.11 17.8927C206.579 17.2953 207.134 16.9967 207.774 16.9967C208.03 16.9967 208.329 17.0607 208.67 17.1887C209.054 17.3167 209.758 17.658 210.782 18.2127C211.294 18.5113 211.699 18.8953 211.998 19.3647C212.126 19.6207 212.339 19.7273 212.638 19.6847L214.43 19.3007C216.521 18.874 218.057 18.6393 219.038 18.5967C219.507 18.5967 219.891 18.682 220.19 18.8527L220.958 19.3007C221.043 19.386 221.086 19.45 221.086 19.4927L220.894 19.6847C218.59 20.1113 217.225 20.346 216.798 20.3887C215.859 20.5167 214.558 20.7513 212.894 21.0927C212.638 21.2633 212.51 21.4553 212.51 21.6687C212.467 22.8633 212.254 24.122 211.87 25.4447C211.23 27.1087 210.675 28.2393 210.206 28.8367C209.822 29.3487 209.374 29.7327 208.862 29.9887C208.478 30.2447 208.051 30.3727 207.582 30.3727C207.283 30.3727 206.963 30.3087 206.622 30.1807ZM209.502 20.1327H209.95C210.377 20.1327 210.505 19.9193 210.334 19.4927L210.078 19.0447C209.822 18.618 209.587 18.4047 209.374 18.4047C209.246 18.4047 209.033 18.49 208.734 18.6607C208.307 18.9167 208.051 19.2153 207.966 19.5567C207.966 19.77 208.051 19.898 208.222 19.9407C208.862 20.0687 209.289 20.1327 209.502 20.1327ZM238.29 19.1087C238.29 19.2367 238.205 19.322 238.034 19.3647L237.266 19.7487C236.882 19.8767 235.858 20.3033 234.194 21.0287C233.554 21.2847 232.487 21.882 230.994 22.8207C230.61 23.034 230.354 23.3753 230.226 23.8447C229.799 25.338 229.01 26.938 227.858 28.6447C227.218 29.37 226.813 29.7967 226.642 29.9247C226.301 30.266 225.917 30.3727 225.49 30.2447L224.53 30.0527C224.231 29.9673 224.061 29.7967 224.018 29.5407C223.975 29.4553 223.954 29.242 223.954 28.9007C223.954 28.5167 224.018 28.1113 224.146 27.6847C224.231 27.4713 224.53 26.9593 225.042 26.1487C226.066 24.826 227.026 23.8447 227.922 23.2047C228.178 22.9913 228.37 22.714 228.498 22.3727C228.882 20.8367 229.074 19.3007 229.074 17.7647C229.074 16.9113 229.01 16.0367 228.882 15.1407C228.797 14.5433 228.669 14.1593 228.498 13.9887C228.327 14.074 228.093 14.266 227.794 14.5647C227.41 15.034 227.026 15.6313 226.642 16.3567C226.429 16.826 226.194 17.3807 225.938 18.0207C225.682 18.6607 225.533 19.002 225.49 19.0447C224.807 20.9647 224.082 23.674 223.314 27.1727C223.015 28.8793 222.759 30.6073 222.546 32.3567C222.546 32.3993 222.503 32.6127 222.418 32.9967C222.375 33.3807 222.333 33.722 222.29 34.0207C222.162 35.1727 221.949 37.8393 221.65 42.0207C221.565 44.3247 221.522 45.6047 221.522 45.8607L221.458 47.7807V48.5487C221.458 48.8047 221.33 48.9753 221.074 49.0607L219.986 49.2527C219.773 49.2527 219.645 49.1673 219.602 48.9967C219.474 48.7833 219.367 48.442 219.282 47.9727C219.282 47.8447 219.239 47.1407 219.154 45.8607C219.154 43.642 219.218 41.402 219.346 39.1407C219.517 35.7273 219.602 32.8473 219.602 30.5007C219.602 29.0073 219.581 28.0473 219.538 27.6207L219.474 24.7407C219.474 19.322 219.495 15.8233 219.538 14.2447C219.709 10.362 219.815 7.866 219.858 6.75666C219.858 6.62866 219.901 6.18066 219.986 5.41266C220.071 5.19933 220.221 5.114 220.434 5.15666L220.754 5.28466C221.223 5.41266 221.479 5.68999 221.522 6.11666C221.693 7.43933 221.799 9.10333 221.842 11.1087L222.034 24.4847C222.034 24.9967 222.098 25.402 222.226 25.7007L222.674 23.5887C223.314 20.9007 224.061 18.49 224.914 16.3567C225.127 15.802 225.447 15.1407 225.874 14.3727C226.13 13.9887 226.429 13.626 226.77 13.2847C227.197 12.858 227.645 12.7087 228.114 12.8367L229.458 13.0927C229.927 13.2207 230.29 13.5193 230.546 13.9887C230.973 14.7567 231.207 15.5673 231.25 16.4207C231.335 18.042 231.271 19.3647 231.058 20.3887L230.994 21.0287L231.058 21.1567C231.143 21.1993 231.229 21.178 231.314 21.0927C231.442 21.0073 231.527 20.9647 231.57 20.9647C232.807 20.3247 234.407 19.6633 236.37 18.9807C236.711 18.8527 237.01 18.7887 237.266 18.7887C237.351 18.7887 237.565 18.8313 237.906 18.9167C238.119 18.9167 238.247 18.9807 238.29 19.1087ZM227.154 26.1487L227.282 25.7007L226.578 26.5327C226.151 27.13 225.831 27.642 225.618 28.0687C225.533 28.282 225.533 28.4313 225.618 28.5167C225.874 28.3887 226.151 28.0473 226.45 27.4927C226.791 26.938 227.026 26.49 227.154 26.1487Z" fill="black"></path></svg> 